<svg
  fill="currentColor"
  viewBox="0 0 24 24"
  xmlns="http://www.w3.org/2000/svg"
>
  <path
    d="M23.954 4.569a10.015 10.015 0 01-2.825.775 4.932 4.932 0 002.163-2.724 9.843 9.843 0 01-3.127 1.184 4.92 4.92 0 00-8.384 4.482A13.978 13.978 0 011.64 3.15a4.822 4.822 0 001.524 6.573 4.902 4.902 0 01-2.229-.616c-.054 2.28 1.582 4.415 3.95 4.89a4.936 4.936 0 01-2.224.085 4.918 4.918 0 004.6 3.417A9.866 9.866 0 010 19.54a13.926 13.926 0 007.548 2.209c9.051 0 14.002-7.496 14.002-13.986 0-.213-.004-.426-.014-.637A9.936 9.936 0 0024 4.59a9.865 9.865 0 01-2.046.563z"
  ></path>
</svg>
